PathFileType	4	(X/Y/Z)	S01_0002_Gait_markers.trc
DataRate	CameraRate	NumFrames	NumMarkers	Units	OrigDataRate	OrigDataStartFrame	OrigNumFrames
250.000000	250.000000	4	54	mm	250.000000	82	330
Frame#	Time	HEAD_ANT			R_HEAD			L_HEAD			C7			R_BACK			L_BACK			STERNUM			R_ACROMION			R_HUM_PROX			R_HUM_ANT			R_HUM_POST			R_ELBOW_LAT			R_ELBOW_MED			R_FOREARM			R_WIRST_LAT			R_WRITS_MED			R_HAND			L_ACROMION			L_HUM_PROX			L_HUM_ANT			L_HUM_POST			L_ELBOW_LAT			L_ELBOW_MED			L_FOREARM			L_WRIST_LAT			L_WIRST_MED			L_HAND			R_ILIAC			SACRUM			L_ILIAC			R_GTROCH			R_THIGH__1			R_THIGH_2			R_THIGH_3			R_THIGH_4			R_SHANK_1			R_SHANK_2			R_SHANK_3			R_SHANK_4			R_HEEL			R_FOOT_LAT			R_FOOT_MED			L_GTROCH			L_THIGH_1			L_THIGH_2			L_THIGH_3			L_THIGH_4			L_SHANK_1			L_SHANK_2			L_SHANK_3			L_SHANK_4			L_HEEL			L_FOOT_LAT			L_FOOT_MED			
		X1	Y1	Z1	X2	Y2	Z2	X3	Y3	Z3	X4	Y4	Z4	X5	Y5	Z5	X6	Y6	Z6	X7	Y7	Z7	X8	Y8	Z8	X9	Y9	Z9	X10	Y10	Z10	X11	Y11	Z11	X12	Y12	Z12	X13	Y13	Z13	X14	Y14	Z14	X15	Y15	Z15	X16	Y16	Z16	X17	Y17	Z17	X18	Y18	Z18	X19	Y19	Z19	X20	Y20	Z20	X21	Y21	Z21	X22	Y22	Z22	X23	Y23	Z23	X24	Y24	Z24	X25	Y25	Z25	X26	Y26	Z26	X27	Y27	Z27	X28	Y28	Z28	X29	Y29	Z29	X30	Y30	Z30	X31	Y31	Z31	X32	Y32	Z32	X33	Y33	Z33	X34	Y34	Z34	X35	Y35	Z35	X36	Y36	Z36	X37	Y37	Z37	X38	Y38	Z38	X39	Y39	Z39	X40	Y40	Z40	X41	Y41	Z41	X42	Y42	Z42	X43	Y43	Z43	X44	Y44	Z44	X45	Y45	Z45	X46	Y46	Z46	X47	Y47	Z47	X48	Y48	Z48	X49	Y49	Z49	X50	Y50	Z50	X51	Y51	Z51	X52	Y52	Z52	X53	Y53	Z53	X54	Y54	Z54	

83	0.328	649.7446899414062	1745.57080078125	-281.5851745605465	592.9706420898438	1688.434204101562	-206.8242340087887	590.150146484375	1701.8515625	-353.7930297851559	453.44873046875	1524.045288085938	-291.908538818359	386.8136901855469	1323.914916992188	-229.3790740966794	383.2083435058594	1329.812377929688	-368.2759704589841	633.302490234375	1363.33984375	-298.1058654785153	533.01904296875	1472.324462890625	-122.1333389282223	502.5198364257812	1311.63671875	-31.5694808959958	564.7496948242188	1226.453002929688	-33.14421463012668	444.1272277832031	1228.009399414062	-15.22298812866184	495.1003723144531	1121.38916015625	-13.60320186614965	461.0453491210938	1118.743041992188	-90.06778717040991	606.3349609375	944.9457397460938	-30.51430130004862	645.6898803710938	883.3912353515625	-74.45919036865214	582.0621337890625	854.324462890625	-33.34778213500957	657.6737060546875	794.1193237304688	-22.96000289916974	533.12939453125	1486.5	-461.794281005859	505.35400390625	1322.523559570313	-561.5156249999997	563.1886596679688	1238.351196289063	-562.006164550781	442.5379638671875	1248.92626953125	-588.0041503906248	495.3106994628906	1141.181884765625	-596.9133300781248	444.6503601074219	1138.13330078125	-539.506896972656	585.10986328125	957.9779663085939	-592.8228759765623	614.7586059570312	891.3307495117189	-544.4088745117185	565.456298828125	879.1368408203126	-608.9514160156248	633.3917846679688	812.1994018554689	-597.0264892578123	537.9301147460938	1076.549926757812	-128.6192779541013	404.469970703125	1046.43359375	-291.3869934082029	517.296875	1067.465209960938	-471.7434997558591	496.5261840820312	925.5865478515625	-114.2863922119139	560.0208740234375	646.7194213867188	-150.3596038818358	614.9393920898438	668.852294921875	-148.9812774658202	626.48876953125	569.1710205078125	-190.7592315673827	562.5055541992188	567.0983276367188	-175.5378265380858	549.8533325195312	341.9553222656251	-180.9768676757812	602.1728515625	319.9239501953126	-202.5388031005859	592.510009765625	236.9335479736329	-223.4712524414062	530.7619018554688	244.8943328857422	-205.8632659912109	470.2689819335938	44.27397918701178	-293.8497924804688	633.60400390625	19.41492271423344	-210.0038299560547	689.1629638671875	28.96548652648933	-314.0380859375	486.2029418945312	951.8189697265626	-477.3759765624998	623.5617065429688	676.4082641601564	-492.9403991699217	566.3404541015625	690.3778686523439	-502.5577087402342	567.4400024414062	584.6325073242189	-486.7538146972655	630.8945922851562	594.6782836914064	-482.9543457031249	467.5992126464844	368.6583557128907	-482.0658874511718	414.1520690917969	396.4230957031251	-480.6142578124999	349.8388061523438	339.6805114746095	-462.5765686035156	397.516845703125	296.3502197265626	-459.6786499023437	194.6605529785156	246.6185913085938	-385.0489807128906	268.7773742675781	91.67015838623057	-458.2891845703125	306.209716796875	74.49420928955087	-367.0179443359375	
84	0.332	655.2605590820312	1746.28564453125	-281.7196044921871	598.4121704101562	1689.264404296875	-206.8542022705074	595.3729248046875	1702.646484375	-353.9833374023434	458.5931091308594	1524.793579101562	-292.1472167968747	392.1912231445312	1324.9697265625	-228.8958435058591	388.4822692871094	1330.59423828125	-367.9729003906247	638.5482788085938	1364.357788085938	-298.0105285644528	538.41650390625	1473.272705078125	-122.2457809448239	508.3829956054688	1312.566040039062	-31.46358871459932	570.8009033203125	1227.488891601562	-33.22271728515598	450.2184753417969	1228.725952148438	-15.04722499847385	501.7763366699219	1122.211791992188	-13.51445198059057	467.1569519042969	1119.686645507812	-89.89344024658179	613.5167846679688	946.39697265625	-31.28553199768045	653.1127319335938	885.1483764648438	-75.66872406005839	589.9053955078125	855.5921630859375	-34.24593353271465	666.028076171875	795.9746704101562	-24.26007270812971	538.0843505859375	1487.364990234375	-461.8601684570309	509.8364868164062	1323.453002929688	-561.7038574218747	567.5692138671875	1239.040161132813	-562.0715332031248	446.9981079101562	1249.951049804688	-587.883117675781	499.5738220214844	1141.912719726563	-596.788146972656	448.5943908691406	1139.378051757813	-539.3895263671873	588.9177856445312	958.7427978515626	-593.1081542968748	618.2018432617188	891.7629394531251	-544.5518798828123	568.9513549804688	879.9443359375001	-609.453918457031	636.3936767578125	812.4910888671876	-597.6397705078123	543.7680053710938	1077.7568359375	-128.744674682617	409.6585693359375	1047.259155273438	-291.3798522949216	522.75830078125	1068.711181640625	-471.5102539062498	500.6588745117188	926.0205078125	-113.8810806274412	562.2955322265625	647.1728515625	-150.3461761474608	617.4796142578125	668.7791748046875	-148.4354095458983	628.435546875	569.0516357421875	-190.3956756591796	564.3326416015625	567.7578125	-175.6390838623046	550.242431640625	342.1753540039063	-180.9209747314452	602.57568359375	320.0112609863282	-202.2199401855468	592.7867431640625	237.0766754150391	-223.177505493164	530.9763793945312	245.3262939453126	-205.9639892578124	470.4361267089844	44.5523529052735	-294.1129760742188	633.61865234375	19.39730453491216	-209.9873352050781	689.3615112304688	29.01865386962898	-313.9469909667969	491.9144287109375	953.0682983398439	-477.4503784179685	631.905029296875	678.4757690429689	-492.1517944335936	574.546630859375	691.6614990234376	-502.977325439453	576.4912109375	586.0662841796876	-486.6953735351561	639.9536743164062	596.6952514648439	-482.5707702636718	478.3260192871094	369.4561767578126	-482.6641540527343	424.6974182128906	396.6950988769532	-480.4267272949218	360.8841857910156	338.733856201172	-462.7625122070312	409.0853271484375	295.9728393554689	-460.0236816406249	206.5003662109375	243.0464782714845	-385.6146545410156	284.7953186035156	90.19025421142588	-459.0466918945312	322.6147155761719	73.43420410156259	-367.9332275390625	
85	0.336	660.7283935546875	1747.052612304688	-281.8519592285152	603.8894653320312	1690.127807617188	-206.8700561523434	600.8927001953125	1703.3798828125	-354.0428771972652	464.0409851074219	1525.535400390625	-291.9803771972653	397.5043640136719	1325.708740234375	-228.8466491699216	393.8457946777344	1331.103393554688	-367.9197082519528	643.8740844726562	1365.337768554688	-298.0353393554685	543.8469848632812	1474.198486328125	-122.271430969238	514.2612915039062	1313.419921875	-31.43373107910127	576.8422241210938	1228.4267578125	-33.37545013427707	456.2177734375	1229.423828125	-14.89424705505344	507.9264831542969	1123.089477539062	-13.58447170257543	473.0324401855469	1120.494262695312	-89.81507873535131	620.9380493164062	947.8731079101562	-32.03283691406229	660.588134765625	886.7689208984375	-76.76322174072246	597.5597534179688	856.943603515625	-35.18359374999981	674.2620239257812	797.6961059570312	-25.60013389587385	543.299072265625	1488.196044921875	-461.7301635742184	514.6182250976562	1324.30908203125	-561.7189941406247	572.26123046875	1239.634521484375	-562.3870849609373	451.4141540527344	1250.94482421875	-587.7101440429685	503.8768005371094	1142.697998046875	-596.848693847656	453.7085266113281	1140.039184570313	-539.051574707031	592.1130981445312	959.5075683593751	-593.2966308593748	621.7061157226562	892.1712036132814	-545.1188354492185	572.3912963867188	880.5764160156251	-609.9851074218748	639.3746948242188	812.7373657226564	-598.001281738281	549.2260131835938	1078.734619140625	-128.9152221679685	414.9830627441406	1048.066284179688	-291.1877136230466	528.3240966796875	1070.07470703125	-471.0144042968748	505.4437866210938	926.7821044921875	-114.1000442504881	564.5916748046875	647.4998168945312	-150.2599029541014	619.9596557617188	668.4999389648438	-148.2268066406249	630.0354614257812	568.8858642578125	-190.0910797119139	566.0508422851562	568.2452392578125	-175.5499725341796	550.6740112304688	342.4838256835938	-180.9174804687499	603.0099487304688	320.0368957519532	-201.9984893798827	593.0986328125	237.1500701904297	-222.9613189697265	531.2032470703125	245.7142333984376	-205.897720336914	470.6084899902344	44.88341140747077	-294.2980346679688	633.6384887695312	19.38572883605962	-209.9721832275391	689.5418090820312	29.03367042541511	-313.8572387695312	497.5588684082031	954.4013061523439	-477.3836975097654	640.3795166015625	680.3574829101564	-491.9308166503905	582.927001953125	693.4855346679689	-503.0916137695311	585.7969970703125	587.5459594726564	-486.8251953124999	648.7635498046875	598.8035888671876	-482.5707702636718	489.0762634277344	369.9345703125001	-482.4642639160156	435.1173400878906	396.4097900390626	-480.645782470703	372.1518249511719	337.8360595703126	-462.8567199707031	420.8631896972656	295.7095336914064	-460.3150939941406	218.35009765625	239.2122955322266	-386.2174682617187	300.9117736816406	88.56809234619151	-459.6600952148438	338.7461853027344	72.48912048339852	-368.7270202636719	
86	0.34	666.2376708984375	1747.6591796875	-282.0719604492184	609.15771484375	1690.79638671875	-207.1413879394528	606.4080810546875	1704.1181640625	-354.2190246582027	469.3328247070312	1526.320434570312	-291.9032897949215	402.7781066894531	1326.495483398438	-228.3057708740232	399.29931640625	1331.772094726562	-367.7794189453122	649.1798095703125	1366.069091796875	-298.3317565917966	549.3179931640625	1475.078369140625	-122.3982391357419	520.0595703125	1314.205322265625	-31.21259880065889	582.948486328125	1229.490234375	-33.44753265380832	462.2939758300781	1229.954467773438	-14.751242637634	513.6912841796875	1123.963989257812	-13.85444927215551	479.4560852050781	1121.124267578125	-90.05465698242162	628.24853515625	949.4104614257812	-32.92362976074197	667.9180908203125	888.6724243164062	-77.95558166503886	605.3411254882812	858.1576538085938	-35.94832229614239	682.473876953125	799.4263916015625	-26.96854019165021	548.1973876953125	1488.964599609375	-461.7748718261715	519.1395263671875	1324.930541992188	-561.8197021484372	576.6595458984375	1240.464111328125	-563.603820800781	455.8540649414062	1251.465454101563	-586.9935302734373	508.0326538085938	1143.642700195313	-596.823791503906	457.6270751953125	1141.208984375	-538.9713134765623	595.933349609375	959.9968261718751	-593.7284545898435	625.1568603515625	892.5467529296876	-545.5316772460935	575.7908935546875	881.3088378906251	-610.493469238281	642.552490234375	813.0317382812501	-598.4351806640623	554.8446044921875	1079.635620117188	-129.2253723144529	420.0311584472656	1049.178466796875	-290.5176086425779	534.1392822265625	1071.21044921875	-470.6907653808591	510.3712768554688	927.54638671875	-114.3447570800779	566.8924560546875	647.9908447265625	-150.1518249511717	622.5449829101562	668.3997802734375	-148.021270751953	631.7706909179688	568.8054809570312	-189.7796783447264	567.6436767578125	568.599365234375	-175.5148925781249	551.189453125	342.7872619628907	-180.931671142578	603.49560546875	320.1611022949219	-201.7268676757812	593.5018310546875	237.4246215820313	-222.1786193847656	531.548583984375	245.6112213134766	-206.0639953613281	470.7417907714844	45.45854949951178	-294.1476745605469	633.6433715820312	19.33399581909184	-209.9547424316406	689.72998046875	29.07526206970222	-313.7144165039062	503.33740234375	955.5479736328126	-477.3582763671873	648.6074829101562	682.1862182617189	-491.403594970703	591.248291015625	694.8065795898439	-503.2465820312498	594.8219604492188	588.8610839843751	-486.8797302246093	657.7127075195312	600.7721557617189	-482.2210388183593	499.9505615234375	370.4703063964845	-482.5668640136718	445.5697937011719	396.0979919433595	-480.675323486328	383.4371948242188	336.6417541503907	-463.1037597656249	432.5076904296875	295.229705810547	-460.5730285644531	230.4755249023438	235.1651916503907	-386.9115600585937	317.1872253417969	86.59285736083994	-460.5141296386719	355.5974731445312	71.58841705322274	-369.3822937011719	
